<svg id="visual" viewBox="0 0 900 600" width="900" height="600" xmlns="http://www.w3.org/2000/svg" xmlns:xlink="http://www.w3.org/1999/xlink" version="1.1"><rect x="0" y="0" width="900" height="600" fill="#060e14"></rect><path d="M0 421L21.5 415.5C43 410 86 399 128.8 395.2C171.7 391.3 214.3 394.7 257.2 402.5C300 410.3 343 422.7 385.8 428C428.7 433.3 471.3 431.7 514.2 429.5C557 427.3 600 424.7 642.8 427.7C685.7 430.7 728.3 439.3 771.2 431.8C814 424.3 857 400.7 878.5 388.8L900 377L900 601L878.5 601C857 601 814 601 771.2 601C728.3 601 685.7 601 642.8 601C600 601 557 601 514.2 601C471.3 601 428.7 601 385.8 601C343 601 300 601 257.2 601C214.3 601 171.7 601 128.8 601C86 601 43 601 21.5 601L0 601Z" fill="#09201c"></path><path d="M0 472L21.5 463.2C43 454.3 86 436.7 128.8 435.5C171.7 434.3 214.3 449.7 257.2 455.2C300 460.7 343 456.3 385.8 445C428.7 433.7 471.3 415.3 514.2 419.7C557 424 600 451 642.8 454.2C685.7 457.3 728.3 436.7 771.2 425.5C814 414.3 857 412.7 878.5 411.8L900 411L900 601L878.5 601C857 601 814 601 771.2 601C728.3 601 685.7 601 642.8 601C600 601 557 601 514.2 601C471.3 601 428.7 601 385.8 601C343 601 300 601 257.2 601C214.3 601 171.7 601 128.8 601C86 601 43 601 21.5 601L0 601Z" fill="#0f2925"></path><path d="M0 465L21.5 471.8C43 478.7 86 492.3 128.8 488C171.7 483.7 214.3 461.3 257.2 452.7C300 444 343 449 385.8 459.8C428.7 470.7 471.3 487.3 514.2 496.2C557 505 600 506 642.8 502.3C685.7 498.7 728.3 490.3 771.2 485.5C814 480.7 857 479.3 878.5 478.7L900 478L900 601L878.5 601C857 601 814 601 771.2 601C728.3 601 685.7 601 642.8 601C600 601 557 601 514.2 601C471.3 601 428.7 601 385.8 601C343 601 300 601 257.2 601C214.3 601 171.7 601 128.8 601C86 601 43 601 21.5 601L0 601Z" fill="#15332e"></path><path d="M0 529L21.5 530.8C43 532.7 86 536.3 128.8 534.3C171.7 532.3 214.3 524.7 257.2 519C300 513.3 343 509.7 385.8 509.3C428.7 509 471.3 512 514.2 509.7C557 507.3 600 499.7 642.8 495.3C685.7 491 728.3 490 771.2 493C814 496 857 503 878.5 506.5L900 510L900 601L878.5 601C857 601 814 601 771.2 601C728.3 601 685.7 601 642.8 601C600 601 557 601 514.2 601C471.3 601 428.7 601 385.8 601C343 601 300 601 257.2 601C214.3 601 171.7 601 128.8 601C86 601 43 601 21.5 601L0 601Z" fill="#1b3d37"></path><path d="M0 540L21.5 540.2C43 540.3 86 540.7 128.8 540.5C171.7 540.3 214.3 539.7 257.2 537C300 534.3 343 529.7 385.8 532.8C428.7 536 471.3 547 514.2 553.7C557 560.3 600 562.7 642.8 559.2C685.7 555.7 728.3 546.3 771.2 539.7C814 533 857 529 878.5 527L900 525L900 601L878.5 601C857 601 814 601 771.2 601C728.3 601 685.7 601 642.8 601C600 601 557 601 514.2 601C471.3 601 428.7 601 385.8 601C343 601 300 601 257.2 601C214.3 601 171.7 601 128.8 601C86 601 43 601 21.5 601L0 601Z" fill="#224841"></path></svg>